<?xml version="1.0" encoding="utf-8"?>
<!-- Generator: Adobe Illustrator 17.0.0, SVG Export Plug-In . SVG Version: 6.00 Build 0)  -->
<!DOCTYPE svg PUBLIC "-//W3C//DTD SVG 1.1//EN" "http://www.w3.org/Graphics/SVG/1.1/DTD/svg11.dtd">
<svg version="1.1" id="Layer_1" xmlns="http://www.w3.org/2000/svg" xmlns:xlink="http://www.w3.org/1999/xlink" x="0px" y="0px"
	 width="24px" height="24px" viewBox="0 0 24 24" enable-background="new 0 0 24 24" xml:space="preserve">
<path fill="#FFFFFF" d="M21.676,5.123h-6.014v1.5h6.014V5.123z M9.937,11.45c0.5-0.256,0.88-0.542,1.137-0.853
	c0.461-0.558,0.69-1.292,0.69-2.209c0-0.888-0.226-1.653-0.684-2.29C10.319,5.058,9.031,4.53,7.212,4.5H0v15h6.727
	c0.757,0,1.459-0.068,2.108-0.202c0.646-0.136,1.209-0.388,1.685-0.753c0.422-0.317,0.774-0.711,1.058-1.179
	c0.444-0.705,0.664-1.503,0.664-2.395c0-0.858-0.194-1.593-0.582-2.196C11.272,12.169,10.695,11.729,9.937,11.45z M3.444,7.104
	h2.779c0.714,0,1.303,0.08,1.762,0.235c0.537,0.223,0.803,0.686,0.803,1.384c0,0.631-0.202,1.071-0.604,1.319
	c-0.405,0.247-0.93,0.372-1.579,0.372h-3.16L3.444,7.104L3.444,7.104z M8.112,16.63c-0.361,0.18-0.864,0.264-1.511,0.264H3.444
	v-3.997h3.205c0.641,0.006,1.14,0.09,1.495,0.255c0.632,0.289,0.949,0.826,0.949,1.607C9.093,15.682,8.765,16.305,8.112,16.63z
	 M23.906,12.318c-0.133-0.844-0.414-1.582-0.854-2.223c-0.484-0.727-1.102-1.256-1.848-1.59c-0.746-0.336-1.584-0.503-2.516-0.503
	c-1.566,0-2.84,0.495-3.826,1.489c-0.982,0.994-1.473,2.421-1.473,4.286c0,1.987,0.547,3.42,1.633,4.303
	c1.088,0.881,2.344,1.323,3.768,1.323c1.725,0,3.066-0.525,4.021-1.571c0.617-0.657,0.963-1.303,1.037-1.94h-2.854
	c-0.166,0.313-0.357,0.56-0.574,0.736c-0.4,0.331-0.918,0.492-1.553,0.492c-0.604,0-1.117-0.132-1.541-0.402
	c-0.705-0.434-1.076-1.188-1.119-2.268h7.787C24.012,13.521,23.979,12.809,23.906,12.318z M16.277,12.599
	c0.102-0.702,0.348-1.256,0.744-1.664c0.396-0.408,0.949-0.616,1.67-0.616c0.66,0,1.215,0.195,1.656,0.582
	c0.447,0.386,0.695,0.952,0.748,1.698C21.095,12.599,16.277,12.599,16.277,12.599z"/>
</svg>
