<?xml version="1.0" encoding="utf-8"?>
<!-- Generator: Adobe Illustrator 17.0.0, SVG Export Plug-In . SVG Version: 6.00 Build 0)  -->
<!DOCTYPE svg PUBLIC "-//W3C//DTD SVG 1.1//EN" "http://www.w3.org/Graphics/SVG/1.1/DTD/svg11.dtd">
<svg version="1.1" id="Layer_1" xmlns="http://www.w3.org/2000/svg" xmlns:xlink="http://www.w3.org/1999/xlink" x="0px" y="0px"
	 width="960px" height="400px" viewBox="0 0 960 400" enable-background="new 0 0 960 400" xml:space="preserve">
<g>
	<path fill="#FFFFFF" d="M480,0c-22.09,0-40,17.91-40,40v120h-80V40c0-22.09-17.91-40-40-40s-40,17.91-40,40v320
		c0,22.09,17.91,40,40,40s40-17.91,40-40V240h80v120c0,22.09,17.91,40,40,40s40-17.91,40-40V40C520,17.91,502.09,0,480,0z"/>
	<path fill="#FFFFFF" d="M640,0c-22.09,0-40,17.91-40,40v320c0,22.09,17.91,40,40,40s40-17.91,40-40V40C680,17.91,662.09,0,640,0z"
		/>
</g>
</svg>
