<?xml version="1.0" encoding="utf-8"?>
<!-- Generator: Adobe Illustrator 18.0.0, SVG Export Plug-In . SVG Version: 6.00 Build 0)  -->
<!DOCTYPE svg PUBLIC "-//W3C//DTD SVG 1.1//EN" "http://www.w3.org/Graphics/SVG/1.1/DTD/svg11.dtd">
<svg version="1.1" id="Layer_1" xmlns="http://www.w3.org/2000/svg" xmlns:xlink="http://www.w3.org/1999/xlink" x="0px" y="0px"
	 viewBox="0 0 960 400" enable-background="new 0 0 960 400" xml:space="preserve">
<g>
	<path fill="#FFFFFF" d="M160,0c-22.1,0-40,17.9-40,40v280H40c-22.1,0-40,17.9-40,40s17.9,40,40,40h120c22.1,0,40-17.9,40-40V40
		C200,17.9,182.1,0,160,0z"/>
	<path fill="#FFFFFF" d="M920,320h-80V40c0-22.1-17.9-40-40-40s-40,17.9-40,40v320c0,22.1,17.9,40,40,40h120c22.1,0,40-17.9,40-40
		S942.1,320,920,320z"/>
</g>
</svg>
